<svg width="70" height="70" viewBox="0 0 70 70" fill="none" xmlns="http://www.w3.org/2000/svg">
<path d="M50.7019 33.3976C50.1491 32.977 49.5958 32.5559 49.0447 32.1337C48.7369 31.8954 48.4274 31.6626 48.1197 31.4215C47.7947 31.167 47.4752 30.8548 47.1141 31.202C46.8891 31.417 46.7169 31.6754 46.5347 31.9209C46.2047 32.3648 45.873 32.8087 45.558 33.2643C45.3413 33.5704 45.0624 33.897 44.9313 34.2515C44.7863 34.6498 44.2991 35.2126 43.8302 35.5398L48.1586 38.7376C48.1686 38.6543 48.1808 38.5709 48.193 38.4998C48.2752 37.9098 48.9002 36.8959 49.2058 36.5604C49.5069 36.2209 50.1236 35.8343 50.4341 35.6898C50.7447 35.5504 51.1791 34.9326 51.3058 34.5559C51.4347 34.1826 51.3302 33.8943 51.0502 33.6654C50.9397 33.5765 50.8191 33.4876 50.7019 33.3976Z" fill="white"/>
<path d="M48.9969 39.9576L42.6191 35.2498L42.1802 35.3998L41.2252 36.712C41.0124 36.7237 40.7968 36.8193 40.5985 37.0876C40.3652 37.4054 36.1246 43.086 35.8051 43.6621C35.6513 43.9393 35.6407 44.1354 35.7024 44.3087L34.5746 45.8599L34.9035 46.6582L40.5641 50.8427L41.3946 50.9027L42.4696 49.4154C42.738 49.4566 42.9746 49.3766 43.1185 49.1432C43.3441 48.7643 47.4274 43.4143 47.858 42.7832C48.1635 42.3365 48.1858 41.9715 48.0924 41.6837L49.0319 40.3887L48.9969 39.9576Z" fill="white"/>
<path d="M54.6013 25.4403C54.0896 22.4331 52.1819 19.0031 48.7818 16.1764C45.3279 13.2997 39.9307 10.7864 35.5007 10.1414C31.0684 9.5008 23.6523 10.6847 21.0756 21.1542C18.4973 31.6259 15.9561 45.4949 16.0006 49.186C16.0467 52.8782 17.7367 56.8644 22.3967 59.0649C22.4962 59.111 22.6051 59.1471 22.7045 59.1899C23.5189 59.5183 24.3462 59.7988 25.2162 59.9205C26.009 60.0266 26.8145 60.0177 27.6123 59.9455C28.3279 59.8822 29.0334 59.7499 29.7206 59.5383C30.3095 59.3538 30.8962 59.1427 31.459 58.8966C32.1751 58.5816 32.8984 58.1777 33.5434 57.7438C33.7423 57.6127 33.9323 57.4694 34.1118 57.3149C34.199 57.2466 34.2818 57.1705 34.3601 57.091C34.4129 57.0338 34.4901 56.9377 34.4646 56.8499C34.4251 56.7388 34.1673 56.7027 34.0679 56.6555C33.8984 56.576 33.7146 56.4716 33.5118 56.3338C33.4868 56.3221 31.0412 54.6821 30.749 54.2393C30.5662 53.966 30.4918 53.6455 30.5351 53.3216C30.5562 53.1616 30.6034 53.0099 30.6651 52.8588C30.6923 52.7832 30.9012 52.361 30.6318 52.5332C30.5268 52.5999 30.4229 52.6671 30.3229 52.7354C29.9179 52.9921 29.534 53.2871 29.1223 53.541C28.3373 54.0221 27.3129 54.2155 26.4034 54.1777C25.7878 54.151 25.1784 54.0005 24.6201 53.7382C22.4484 52.7116 21.5923 50.2315 21.8378 48.1732C22.0856 46.1182 26.1106 25.3209 27.1756 21.4259C28.2395 17.5353 30.8768 15.0119 35.6712 16.2153C40.4668 17.4153 43.5518 19.067 46.2935 21.9525C46.8013 22.4909 47.2879 23.0431 47.7091 23.647C48.2996 24.497 48.8118 25.3687 49.0452 26.3859C49.2296 27.1692 49.253 27.9831 49.0591 28.7664C48.9785 29.0903 48.9041 29.4142 48.7907 29.7287C48.6907 30.0015 48.4935 30.2815 48.4602 30.5715C48.4463 30.7559 48.6107 30.8131 48.7363 30.9115C49.6685 31.6203 50.5985 32.3315 51.5257 33.0392C51.5352 33.0465 51.5407 33.052 51.548 33.0565C51.8257 33.2859 52.018 33.582 52.1069 33.9292C52.1669 34.1609 52.2685 34.1926 52.4991 34.1059C53.4235 33.7559 53.908 32.7298 54.1535 31.8381C54.4352 30.817 54.608 29.7609 54.6869 28.7053C54.7641 27.6203 54.7808 26.5209 54.6013 25.4403Z" fill="white"/>
<path d="M34.309 48.4626C34.0829 48.8371 34.244 49.011 34.0012 49.4249C33.7551 49.8399 32.0629 51.9899 31.649 52.6632C31.2351 53.3366 31.2573 53.5921 31.404 53.8016C31.5429 54.0138 33.4295 55.3388 33.9456 55.676C34.4612 56.0193 34.7934 56.1271 35.0284 56.046C35.264 55.9621 37.0201 53.461 37.3079 53.1599C37.5968 52.861 38.219 51.9504 38.6057 51.8399C38.9957 51.7354 39.1312 51.6554 39.3207 51.4571C39.394 51.3771 39.5673 51.1188 39.7523 50.8321L35.0818 47.3821C34.7862 47.7793 34.4323 48.2582 34.309 48.4626ZM34.8501 53.6604C34.7012 54.0888 34.2384 54.3188 33.8112 54.1716C33.3829 54.026 33.1567 53.5627 33.3012 53.1338C33.4467 52.7065 33.9112 52.4793 34.3395 52.626C34.7651 52.7704 34.9918 53.2332 34.8501 53.6604Z" fill="white"/>
</svg>
