<svg width="63" height="63" viewBox="0 0 63 63" fill="none" xmlns="http://www.w3.org/2000/svg">
<path d="M7.10055 26.972C6.8164 27.5561 6.61101 28.2037 6.50075 28.8987C6.4535 29.2465 6.42137 29.5936 6.42137 29.9408L6.67401 45.855L1.17815 57.6986C0.98851 58.0463 0.84675 58.4565 0.783746 58.883C0.483216 60.8406 1.82584 62.657 3.78401 62.9575C5.29989 63.1944 6.75277 62.4201 7.4477 61.1411L13.4961 48.1918C13.6221 47.8913 13.733 47.5757 13.7803 47.2285C13.7954 47.071 13.8118 46.8977 13.8118 46.7396L13.7645 36.9059L23.0501 40.9602L24.5502 50.5778C24.8507 51.9828 26.0031 53.1043 27.5038 53.3412C29.4614 53.6253 31.2778 52.2833 31.5777 50.3403C31.6249 50.0095 31.6249 49.6769 31.5934 49.3618L29.7613 37.7583C29.5395 36.6369 28.7979 35.6735 27.7552 35.184L19.4488 31.4888L24.7386 22.282L27.3602 25.6143C27.6286 25.9148 27.9757 26.1668 28.3708 26.325L38.367 29.2465C39.6933 29.5306 41.0516 28.8357 41.5727 27.5567C42.1574 26.1038 41.4618 24.4613 40.0253 23.8772C39.9781 23.8615 39.9308 23.8457 39.8829 23.83L31.1971 21.2714L24.6611 13.4229C23.6814 12.3809 22.3709 11.6387 20.855 11.4018C18.2019 11.0067 15.6912 12.27 14.3643 14.4178L7.10055 26.972Z" fill="black"/>
<path d="M35.778 49.7866L35.1467 54.556L17.9497 58.7407L18.1072 61.6937H60.0498C61.5342 61.6937 62.7344 60.4941 62.7344 59.0097L62.6871 2.47918L56.9393 1.13719L53.6391 15.9967L48.1275 18.3185L43.232 32.0257L47.8748 42.507L46.5637 46.5343L35.778 49.7866Z" fill="black"/>
<path d="M24.0917 10.7069C27.0448 10.7069 29.4446 8.30648 29.4446 5.35347C29.4446 2.40046 27.0448 0 24.0917 0C21.1381 0 18.7383 2.40046 18.7383 5.35347C18.7383 8.30648 21.1387 10.7069 24.0917 10.7069Z" fill="black"/>
<path d="M13.4496 11.5438C13.8597 10.8173 13.6228 9.86974 12.8813 9.45895L10.2918 7.94307C9.54898 7.53228 8.61778 7.76918 8.19124 8.51137L0.199783 22.298C-0.210375 23.0244 0.0265215 23.9562 0.768081 24.3828L3.37394 25.8829C4.10038 26.3094 5.03221 26.0568 5.45875 25.3304L13.4496 11.5438Z" fill="black"/>
</svg>
