<svg width="29" height="30" viewBox="0 0 29 30" fill="none" xmlns="http://www.w3.org/2000/svg">
<path d="M2.72727 1.36364C2.72727 0.610521 2.11675 0 1.36364 0C0.610521 0 0 0.610521 0 1.36364V28.6364C0 29.3895 0.610521 30 1.36364 30C2.11675 30 2.72727 29.3895 2.72727 28.6364V1.36364Z" fill="#3D3D3D"/>
<path fill-rule="evenodd" clip-rule="evenodd" d="M1.36701 2.72727C0.612031 2.72727 0 2.122 0 1.36364C0 0.610521 0.611609 0 1.36701 0L14.9966 0C15.7516 0 16.3636 0.60527 16.3636 1.36364C16.3636 2.11675 15.752 2.72727 14.9966 2.72727H1.36701Z" fill="#3D3D3D"/>
<path d="M1.36364 27.2727C0.610521 27.2727 0 27.8832 0 28.6364C0 29.3895 0.610521 30 1.36364 30H15C15.7531 30 16.3636 29.3895 16.3636 28.6364C16.3636 27.8832 15.7531 27.2727 15 27.2727H1.36364Z" fill="#3D3D3D"/>
<path fill-rule="evenodd" clip-rule="evenodd" d="M7.49541 16.3636C6.74482 16.3636 6.13635 15.7584 6.13635 15C6.13635 14.2469 6.74979 13.6364 7.49541 13.6364H24.55C25.3006 13.6364 25.9091 14.2416 25.9091 15C25.9091 15.7531 25.2956 16.3636 24.55 16.3636H7.49541Z" fill="#3D3D3D"/>
<path fill-rule="evenodd" clip-rule="evenodd" d="M27.4866 15.9642L20.737 22.7139C20.2044 23.2464 19.341 23.2464 18.8085 22.7139C18.276 22.1814 18.276 21.318 18.8085 20.7854L24.5939 15L18.8085 9.21458C18.276 8.68205 18.276 7.81864 18.8085 7.28611C19.341 6.75357 20.2044 6.75357 20.737 7.28611L27.4866 14.0358C28.0192 14.5683 28.0192 15.4317 27.4866 15.9642Z" fill="#3D3D3D"/>
</svg>
