<svg width="191" height="36" viewBox="0 0 191 36" fill="none" xmlns="http://www.w3.org/2000/svg">
<path d="M22.8693 16.8463C22.5205 16.5435 22.1713 16.2403 21.8236 15.9363C21.6294 15.7647 21.4342 15.5971 21.24 15.4235C21.0349 15.2403 20.8333 15.0155 20.6055 15.2655C20.4635 15.4203 20.3549 15.6063 20.2399 15.7831C20.0317 16.1027 19.8224 16.4223 19.6236 16.7503C19.4869 16.9707 19.3109 17.2059 19.2282 17.4611C19.1367 17.7479 18.8293 18.1531 18.5334 18.3887L21.2645 20.6911C21.2708 20.6311 21.2785 20.5711 21.2862 20.5199C21.3381 20.0951 21.7325 19.3651 21.9253 19.1235C22.1153 18.8791 22.5044 18.6007 22.7003 18.4967C22.8963 18.3963 23.1704 17.9515 23.2503 17.6803C23.3316 17.4115 23.2657 17.2039 23.0891 17.0391C23.0193 16.9751 22.9432 16.9111 22.8693 16.8463Z" fill="white"/>
<path d="M21.7936 21.5695L17.7694 18.1799L17.4925 18.2879L16.8899 19.2327C16.7557 19.2411 16.6196 19.3099 16.4945 19.5031C16.3473 19.7319 13.6716 23.8219 13.47 24.2367C13.3729 24.4363 13.3663 24.5775 13.4052 24.7023L12.6936 25.8191L12.9011 26.3939L16.4728 29.4067L16.9968 29.4499L17.6751 28.3791C17.8444 28.4087 17.9938 28.3511 18.0845 28.1831C18.2269 27.9103 20.8033 24.0583 21.075 23.6039C21.2678 23.2823 21.2818 23.0195 21.2229 22.8123L21.8157 21.8799L21.7936 21.5695Z" fill="white"/>
<path d="M25.3298 11.117C25.007 8.95182 23.8032 6.48221 21.6579 4.447C19.4786 2.37579 16.0731 0.566178 13.2779 0.101776C10.4813 -0.359427 5.80197 0.492977 4.17617 8.03101C2.54932 15.5707 0.945952 25.5563 0.973995 28.2139C1.00309 30.8723 2.06943 33.7423 5.00976 35.3267C5.0725 35.3599 5.14121 35.3859 5.20395 35.4167C5.71784 35.6531 6.2398 35.8552 6.78874 35.9428C7.28896 36.0192 7.79724 36.0128 8.30062 35.9608C8.75211 35.9151 9.1973 35.82 9.63091 35.6675C10.0025 35.5347 10.3727 35.3827 10.7278 35.2055C11.1796 34.9787 11.636 34.6879 12.043 34.3755C12.1685 34.2811 12.2884 34.1779 12.4016 34.0667C12.4566 34.0175 12.5088 33.9627 12.5583 33.9055C12.5916 33.8643 12.6403 33.7951 12.6242 33.7319C12.5993 33.6519 12.4366 33.6259 12.3739 33.5919C12.267 33.5347 12.1509 33.4595 12.023 33.3603C12.0072 33.3519 10.4641 32.1711 10.2798 31.8523C10.1644 31.6555 10.1175 31.4247 10.1448 31.1915C10.1581 31.0763 10.1879 30.9671 10.2268 30.8583C10.244 30.8039 10.3758 30.4999 10.2058 30.6239C10.1395 30.6719 10.074 30.7203 10.0109 30.7695C9.75536 30.9543 9.51313 31.1667 9.25338 31.3495C8.75807 31.6959 8.11168 31.8351 7.53785 31.8079C7.14945 31.7887 6.76491 31.6803 6.41261 31.4915C5.04236 30.7523 4.50217 28.9667 4.65711 27.4847C4.81345 26.0051 7.35311 11.031 8.02509 8.22661C8.69638 5.4254 10.3604 3.60859 13.3855 4.475C16.4114 5.339 18.3579 6.52821 20.0879 8.60582C20.4082 8.99342 20.7153 9.39102 20.981 9.82582C21.3537 10.4378 21.6768 11.0654 21.8241 11.7978C21.9405 12.3618 21.9552 12.9478 21.8328 13.5118C21.782 13.745 21.735 13.9782 21.6635 14.2046C21.6004 14.401 21.476 14.6026 21.455 14.8114C21.4462 14.9442 21.55 14.9854 21.6292 15.0562C22.2174 15.5667 22.8042 16.0787 23.3892 16.5883C23.3952 16.5935 23.3987 16.5975 23.4033 16.6007C23.5785 16.7659 23.6998 16.9791 23.7559 17.2291C23.7938 17.3959 23.8579 17.4187 24.0034 17.3563C24.5867 17.1043 24.8923 16.3655 25.0473 15.7235C25.225 14.9882 25.334 14.2278 25.3838 13.4678C25.4325 12.6866 25.443 11.895 25.3298 11.117Z" fill="white"/>
<path d="M12.5258 27.6931C12.3832 27.9627 12.4848 28.0879 12.3316 28.3859C12.1764 28.6847 11.1086 30.2327 10.8475 30.7175C10.5863 31.2023 10.6003 31.3863 10.6929 31.5371C10.7805 31.6899 11.9709 32.6439 12.2966 32.8867C12.6219 33.1339 12.8315 33.2115 12.9798 33.1531C13.1284 33.0927 14.2365 31.2919 14.4181 31.0751C14.6003 30.8599 14.9929 30.2043 15.2369 30.1247C15.483 30.0495 15.5685 29.9919 15.6881 29.8491C15.7343 29.7915 15.8437 29.6055 15.9604 29.3991L13.0134 26.9151C12.827 27.2011 12.6037 27.5459 12.5258 27.6931ZM12.8673 31.4355C12.7733 31.7439 12.4813 31.9095 12.2118 31.8035C11.9415 31.6987 11.7988 31.3651 11.89 31.0563C11.9818 30.7487 12.2749 30.5851 12.5451 30.6907C12.8136 30.7947 12.9567 31.1279 12.8673 31.4355Z" fill="white"/>
<path d="M46.46 8.58C49.16 8.58 51.39 9.29 53.15 10.71C54.93 12.13 56.08 14.05 56.6 16.47H51.17C50.77 15.49 50.15 14.72 49.31 14.16C48.49 13.6 47.51 13.32 46.37 13.32C44.87 13.32 43.66 13.87 42.74 14.97C41.82 16.07 41.36 17.54 41.36 19.38C41.36 21.22 41.82 22.69 42.74 23.79C43.66 24.87 44.87 25.41 46.37 25.41C47.51 25.41 48.49 25.13 49.31 24.57C50.15 24.01 50.77 23.25 51.17 22.29H56.6C56.08 24.69 54.93 26.61 53.15 28.05C51.39 29.47 49.16 30.18 46.46 30.18C44.4 30.18 42.59 29.73 41.03 28.83C39.47 27.91 38.26 26.63 37.4 24.99C36.56 23.35 36.14 21.48 36.14 19.38C36.14 17.28 36.56 15.41 37.4 13.77C38.26 12.13 39.47 10.86 41.03 9.96C42.59 9.04 44.4 8.58 46.46 8.58ZM70.3651 30L65.7751 21.99H64.6051V30H59.4751V8.79H68.2351C69.9151 8.79 71.3351 9.08 72.4951 9.66C73.6551 10.24 74.5251 11.04 75.1051 12.06C75.6851 13.06 75.9751 14.21 75.9751 15.51C75.9751 17.05 75.5451 18.36 74.6851 19.44C73.8451 20.52 72.6151 21.26 70.9951 21.66L76.0351 30H70.3651ZM64.6051 18.48H67.7851C68.8051 18.48 69.5551 18.26 70.0351 17.82C70.5151 17.36 70.7551 16.69 70.7551 15.81C70.7551 14.97 70.5051 14.31 70.0051 13.83C69.5251 13.35 68.7851 13.11 67.7851 13.11H64.6051V18.48ZM91.6873 26.13H83.7373L82.4173 30H77.0173L84.7873 8.94H90.6973L98.4673 30H93.0073L91.6873 26.13ZM90.3673 22.23L87.7273 14.43L85.0573 22.23H90.3673ZM110.391 8.58C113.051 8.58 115.241 9.23 116.961 10.53C118.681 11.83 119.751 13.59 120.171 15.81H114.741C114.381 15.05 113.831 14.45 113.091 14.01C112.351 13.55 111.461 13.32 110.421 13.32C108.801 13.32 107.501 13.87 106.521 14.97C105.541 16.05 105.051 17.52 105.051 19.38C105.051 21.4 105.561 22.95 106.581 24.03C107.621 25.11 109.091 25.65 110.991 25.65C112.211 25.65 113.281 25.32 114.201 24.66C115.121 23.98 115.771 23.02 116.151 21.78H109.671V18.09H120.441V23.16C120.041 24.4 119.401 25.55 118.521 26.61C117.641 27.67 116.511 28.53 115.131 29.19C113.771 29.85 112.211 30.18 110.451 30.18C108.311 30.18 106.441 29.73 104.841 28.83C103.241 27.91 102.001 26.63 101.121 24.99C100.261 23.35 99.8314 21.48 99.8314 19.38C99.8314 17.28 100.261 15.41 101.121 13.77C102.001 12.13 103.231 10.86 104.811 9.96C106.411 9.04 108.271 8.58 110.391 8.58ZM133.629 28.32H141.309V30H131.499V8.85H133.629V28.32ZM153.784 8.61C155.744 8.61 157.504 9.07 159.064 9.99C160.624 10.91 161.844 12.19 162.724 13.83C163.624 15.47 164.074 17.33 164.074 19.41C164.074 21.49 163.624 23.36 162.724 25.02C161.844 26.66 160.624 27.94 159.064 28.86C157.504 29.78 155.744 30.24 153.784 30.24C151.824 30.24 150.064 29.78 148.504 28.86C146.944 27.94 145.714 26.66 144.814 25.02C143.934 23.36 143.494 21.49 143.494 19.41C143.494 17.33 143.934 15.47 144.814 13.83C145.714 12.19 146.944 10.91 148.504 9.99C150.064 9.07 151.824 8.61 153.784 8.61ZM153.784 10.56C152.244 10.56 150.854 10.92 149.614 11.64C148.394 12.36 147.424 13.39 146.704 14.73C146.004 16.07 145.654 17.63 145.654 19.41C145.654 21.19 146.004 22.75 146.704 24.09C147.424 25.43 148.394 26.46 149.614 27.18C150.854 27.9 152.244 28.26 153.784 28.26C155.324 28.26 156.704 27.9 157.924 27.18C159.164 26.46 160.134 25.43 160.834 24.09C161.554 22.75 161.914 21.19 161.914 19.41C161.914 17.63 161.554 16.07 160.834 14.73C160.134 13.39 159.164 12.36 157.924 11.64C156.704 10.92 155.324 10.56 153.784 10.56ZM177.455 8.67C179.855 8.67 181.885 9.27 183.545 10.47C185.205 11.67 186.345 13.3 186.965 15.36H184.775C184.235 13.94 183.315 12.79 182.015 11.91C180.735 11.03 179.215 10.59 177.455 10.59C175.935 10.59 174.555 10.95 173.315 11.67C172.095 12.39 171.135 13.42 170.435 14.76C169.735 16.1 169.385 17.66 169.385 19.44C169.385 21.26 169.735 22.84 170.435 24.18C171.155 25.52 172.135 26.55 173.375 27.27C174.635 27.99 176.065 28.35 177.665 28.35C179.085 28.35 180.385 28.04 181.565 27.42C182.745 26.78 183.695 25.86 184.415 24.66C185.155 23.46 185.585 22.05 185.705 20.43H176.915V18.84H187.535V20.7C187.395 22.5 186.885 24.12 186.005 25.56C185.145 27 183.975 28.14 182.495 28.98C181.035 29.8 179.365 30.21 177.485 30.21C175.485 30.21 173.705 29.76 172.145 28.86C170.585 27.94 169.375 26.66 168.515 25.02C167.655 23.38 167.225 21.52 167.225 19.44C167.225 17.36 167.655 15.5 168.515 13.86C169.375 12.22 170.575 10.95 172.115 10.05C173.675 9.13 175.455 8.67 177.455 8.67Z" fill="white"/>
</svg>
