<svg width="74" height="74" viewBox="0 0 74 74" fill="none" xmlns="http://www.w3.org/2000/svg">
<path d="M72.1 66L53 47C56.6 42.2 58.7 36.2 58.7 29.7C58.7 13.7 45.7 0.599976 29.6 0.599976C13.5 0.599976 0.5 13.6 0.5 29.7C0.5 45.7 13.5 58.8 29.6 58.8C36.1 58.8 42.1 56.7 46.9 53.1L65.9 72.1C66.7 72.9 67.8 73.4 68.9 73.4C70 73.4 71.1 73 71.9 72.1C73.8 70.4 73.8 67.7 72.1 66ZM9.2 29.7C9.2 18.4 18.4 9.19998 29.7 9.19998C41 9.19998 50.2 18.4 50.2 29.7C50.2 41 41 50.2 29.7 50.2C18.4 50.2 9.2 41 9.2 29.7Z" fill="#254142"/>
</svg>
