<svg width="24" height="25" viewBox="0 0 24 25" fill="none" xmlns="http://www.w3.org/2000/svg">
<path d="M2.70137 10.4954C2.59328 10.7176 2.51515 10.9639 2.4732 11.2283C2.45523 11.3606 2.44301 11.4926 2.44301 11.6247L2.53911 17.6784L0.448497 22.1837C0.376357 22.316 0.322432 22.472 0.298465 22.6343C0.184144 23.3789 0.694874 24.0699 1.43976 24.1842C2.0164 24.2743 2.56907 23.9798 2.83342 23.4932L5.13423 18.5674C5.18216 18.453 5.22434 18.333 5.24232 18.2009C5.24807 18.141 5.2543 18.0751 5.2543 18.0149L5.23632 14.2742L8.76854 15.8165L9.33918 19.475C9.4535 20.0094 9.89185 20.436 10.4627 20.5262C11.2074 20.6343 11.8983 20.1238 12.0124 19.3846C12.0304 19.2588 12.0304 19.1323 12.0184 19.0124L11.3215 14.5985C11.2371 14.1719 10.955 13.8054 10.5584 13.6192L7.3986 12.2136L9.41084 8.7113L10.4081 9.9789C10.5102 10.0932 10.6423 10.1891 10.7925 10.2492L14.5951 11.3606C15.0996 11.4687 15.6163 11.2043 15.8145 10.7178C16.0369 10.1651 15.7723 9.54031 15.2259 9.31813C15.2079 9.31214 15.1899 9.30615 15.1717 9.30016L11.8677 8.32687L9.38136 5.34134C9.00868 4.94493 8.51017 4.6626 7.93354 4.57249C6.9243 4.42222 5.96923 4.90275 5.46449 5.71977L2.70137 10.4954Z" fill="white"/>
<path d="M13.61 19.174L13.3698 20.9883L6.82812 22.5801L6.88804 23.7035H22.8429C23.4076 23.7035 23.8641 23.2471 23.8641 22.6825L23.8462 1.17835L21.6597 0.667862L20.4043 6.32041L18.3077 7.20358L16.4455 12.4178L18.2116 16.4049L17.7128 17.9368L13.61 19.174Z" fill="white"/>
<path d="M9.16462 4.30819C10.2879 4.30819 11.2008 3.39506 11.2008 2.27174C11.2008 1.14842 10.2879 0.235291 9.16462 0.235291C8.04107 0.235291 7.12817 1.14842 7.12817 2.27174C7.12817 3.39506 8.04131 4.30819 9.16462 4.30819Z" fill="white"/>
<path d="M5.11619 4.62652C5.27222 4.35018 5.1821 3.98972 4.90001 3.83346L3.91498 3.25682C3.63242 3.10056 3.27819 3.19067 3.11593 3.473L0.0759971 8.71739C-0.0800261 8.99373 0.0100887 9.3482 0.292177 9.51045L1.28344 10.0811C1.55978 10.2434 1.91424 10.1472 2.0765 9.87091L5.11619 4.62652Z" fill="white"/>
</svg>
