<svg width="241" height="70" viewBox="0 0 241 70" fill="none" xmlns="http://www.w3.org/2000/svg">
<path d="M48.5826 32.7566C47.8087 32.1678 47.034 31.5783 46.2625 30.9872C45.8316 30.6535 45.3984 30.3276 44.9675 29.99C44.5125 29.6338 44.0652 29.1967 43.5597 29.6828C43.2447 29.9838 43.0036 30.3455 42.7485 30.6893C42.2865 31.3107 41.8221 31.9322 41.3811 32.5699C41.0778 32.9985 40.6873 33.4558 40.5038 33.9521C40.3008 34.5097 39.6187 35.2976 38.9622 35.7557L45.0219 40.2327C45.0359 40.116 45.053 39.9993 45.0701 39.8998C45.1853 39.0738 46.0603 37.6543 46.488 37.1845C46.9096 36.7093 47.7729 36.168 48.2077 35.9657C48.6425 35.7705 49.2507 34.9056 49.428 34.3783C49.6085 33.8556 49.4623 33.4519 49.0703 33.1315C48.9155 33.0071 48.7467 32.8826 48.5826 32.7566Z" fill="#1A3F2D"/>
<path d="M46.1956 41.9407L37.2666 35.3497L36.6522 35.5597L35.3152 37.3969C35.0173 37.4132 34.7155 37.547 34.4378 37.9226C34.1112 38.3675 28.1744 46.3204 27.7271 47.1269C27.5117 47.515 27.4969 47.7896 27.5833 48.0323L26.0044 50.2038L26.4648 51.3215L34.3896 57.1797L35.5524 57.2637L37.0574 55.1816C37.4331 55.2392 37.7644 55.1272 37.9659 54.8005C38.2816 54.2701 43.9983 46.78 44.6011 45.8965C45.0289 45.2711 45.06 44.7601 44.9293 44.3572L46.2446 42.5442L46.1956 41.9407Z" fill="#1A3F2D"/>
<path d="M54.0418 21.6164C53.3255 17.4063 50.6546 12.6043 45.8946 8.64694C41.0591 4.61959 33.503 1.1009 27.3009 0.197897C21.0958 -0.698885 10.7132 0.958567 7.10584 15.6159C3.49615 30.2763 -0.0614181 49.6928 0.000804461 54.8604C0.0653603 60.0295 2.43137 65.6101 8.9554 68.6909C9.09463 68.7555 9.24707 68.806 9.3863 68.8659C10.5265 69.3256 11.6846 69.7184 12.9026 69.8887C14.0125 70.0372 15.1403 70.0248 16.2572 69.9237C17.259 69.835 18.2468 69.6499 19.2089 69.3536C20.0333 69.0953 20.8547 68.7998 21.6426 68.4552C22.6451 68.0142 23.6578 67.4488 24.5608 66.8413C24.8393 66.6578 25.1053 66.4571 25.3565 66.2409C25.4786 66.1452 25.5945 66.0387 25.7042 65.9274C25.778 65.8473 25.8862 65.7128 25.8504 65.5899C25.7952 65.4343 25.4343 65.3838 25.295 65.3177C25.0578 65.2064 24.8004 65.0602 24.5165 64.8673C24.4815 64.851 21.0577 62.555 20.6486 61.9351C20.3927 61.5524 20.2885 61.1036 20.3491 60.6502C20.3787 60.4262 20.4448 60.2139 20.5311 60.0023C20.5692 59.8965 20.8617 59.3054 20.4845 59.5465C20.3375 59.6399 20.192 59.734 20.052 59.8296C19.485 60.189 18.9476 60.602 18.3712 60.9574C17.2722 61.631 15.838 61.9016 14.5648 61.8488C13.703 61.8114 12.8498 61.6006 12.0681 61.2335C9.02774 59.7962 7.82918 56.3242 8.17295 53.4425C8.51985 50.5655 14.1549 21.4492 15.6459 15.9962C17.1353 10.5494 20.8275 7.01671 27.5397 8.70138C34.2535 10.3814 38.5726 12.6937 42.4109 16.7335C43.1218 17.4872 43.8031 18.2603 44.3927 19.1058C45.2195 20.2958 45.9366 21.5161 46.2632 22.9402C46.5215 24.0369 46.5541 25.1764 46.2827 26.273C46.1699 26.7265 46.0657 27.1799 45.907 27.6201C45.767 28.002 45.4909 28.394 45.4442 28.8C45.4248 29.0583 45.655 29.1384 45.8308 29.276C47.1359 30.2685 48.4379 31.2641 49.736 32.2549C49.7493 32.2651 49.757 32.2728 49.7672 32.2791C50.156 32.6003 50.4252 33.0148 50.5496 33.5009C50.6336 33.8253 50.7759 33.8696 51.0987 33.7483C52.3929 33.2583 53.0712 31.8217 53.415 30.5734C53.8093 29.1438 54.0512 27.6653 54.1616 26.1875C54.2697 24.6685 54.2931 23.1292 54.0418 21.6164Z" fill="#1A3F2D"/>
<path d="M25.6326 53.8477C25.316 54.3719 25.5416 54.6154 25.2017 55.1948C24.8571 55.7758 22.488 58.7858 21.9086 59.7285C21.3291 60.6712 21.3602 61.029 21.5656 61.3222C21.76 61.6193 24.4014 63.4743 25.1239 63.9464C25.8457 64.4271 26.3108 64.578 26.6398 64.4644C26.9696 64.347 29.4282 60.8454 29.8311 60.4239C30.2355 60.0054 31.1066 58.7306 31.648 58.5758C32.194 58.4296 32.3837 58.3176 32.649 58.04C32.7516 57.928 32.9943 57.5663 33.2533 57.165L26.7145 52.3349C26.3007 52.891 25.8053 53.5615 25.6326 53.8477ZM26.3902 61.1246C26.1817 61.7243 25.5338 62.0463 24.9357 61.8402C24.336 61.6364 24.0195 60.9877 24.2217 60.3873C24.4255 59.7892 25.0757 59.4711 25.6754 59.6764C26.2712 59.8786 26.5885 60.5265 26.3902 61.1246Z" fill="#1A3F2D"/>
<path d="M78.68 54.48C75.16 54.48 72.6533 53.56 71.16 51.72C69.6933 49.8533 68.96 47.1733 68.96 43.68V32C68.96 28.4267 69.6933 25.7333 71.16 23.92C72.6267 22.08 75.1333 21.16 78.68 21.16C82.0667 21.16 84.4667 21.9733 85.88 23.6C87.2933 25.2267 88 27.5333 88 30.52V33.32H81V30.08C81 28.8267 80.8667 27.8667 80.6 27.2C80.3333 26.5333 79.6933 26.2 78.68 26.2C77.6667 26.2 77 26.56 76.68 27.28C76.36 27.9733 76.2 28.9467 76.2 30.2V45.44C76.2 46.72 76.36 47.7067 76.68 48.4C77.0267 49.0667 77.6933 49.4 78.68 49.4C79.6667 49.4 80.2933 49.0667 80.56 48.4C80.8533 47.7067 81 46.72 81 45.44V42.04H88V44.84C88 47.88 87.2933 50.2533 85.88 51.96C84.4667 53.64 82.0667 54.48 78.68 54.48ZM91.9391 21.6H100.859C104.406 21.6 107.086 22.2267 108.899 23.48C110.712 24.7333 111.619 26.96 111.619 30.16C111.619 32.32 111.339 34.04 110.779 35.32C110.219 36.6 109.179 37.6 107.659 38.32L112.099 54H104.699L101.139 39.48H99.0991V54H91.9391V21.6ZM101.099 35.36C102.539 35.36 103.539 34.9867 104.099 34.24C104.686 33.4667 104.979 32.32 104.979 30.8C104.979 29.3333 104.712 28.24 104.179 27.52C103.646 26.7733 102.726 26.4 101.419 26.4H99.0991V35.36H101.099ZM120.483 21.6H128.643L134.683 54H128.083L127.003 47.16H122.243L121.123 54H114.363L120.483 21.6ZM126.323 42.88L124.603 30.24L122.883 42.88H126.323ZM145.887 54.48C142.687 54.48 140.407 53.5067 139.047 51.56C137.687 49.6133 137.007 46.8533 137.007 43.28V32.4C137.007 28.7467 137.74 25.96 139.207 24.04C140.7 22.12 143.207 21.16 146.727 21.16C150.114 21.16 152.54 21.9867 154.007 23.64C155.474 25.2933 156.207 27.6267 156.207 30.64V32.72H149.207V30.08C149.207 28.8 149.06 27.84 148.767 27.2C148.474 26.5333 147.82 26.2 146.807 26.2C145.767 26.2 145.087 26.56 144.767 27.28C144.474 28 144.327 29 144.327 30.28V45.28C144.327 46.56 144.514 47.5733 144.887 48.32C145.287 49.04 145.994 49.4 147.007 49.4C148.874 49.4 149.807 48 149.807 45.2V41.4H146.887V37.2H156.247V54H151.527L151.127 51.32C150.114 53.4267 148.367 54.48 145.887 54.48ZM171.403 21.6H174.442V51.72H183.643V54H171.403V21.6ZM194.2 54.4C191.16 54.4 189 53.5333 187.72 51.8C186.466 50.0667 185.84 47.6133 185.84 44.44V31C185.84 27.8533 186.48 25.4533 187.76 23.8C189.04 22.12 191.186 21.28 194.2 21.28C197.16 21.28 199.28 22.12 200.56 23.8C201.84 25.48 202.48 27.88 202.48 31V44.48C202.48 47.6533 201.853 50.1067 200.6 51.84C199.346 53.5467 197.213 54.4 194.2 54.4ZM194.2 51.96C196.173 51.96 197.533 51.3867 198.28 50.24C199.026 49.0667 199.4 47.36 199.4 45.12V30.44C199.4 28.2 199.026 26.52 198.28 25.4C197.56 24.28 196.2 23.72 194.2 23.72C192.173 23.72 190.786 24.28 190.04 25.4C189.293 26.4933 188.92 28.1733 188.92 30.44V45.12C188.92 47.3867 189.293 49.0933 190.04 50.24C190.786 51.3867 192.173 51.96 194.2 51.96ZM214.855 54.44C211.949 54.44 209.882 53.56 208.655 51.8C207.455 50.0133 206.855 47.4533 206.855 44.12V31.48C206.855 28.12 207.455 25.5867 208.655 23.88C209.855 22.1467 211.989 21.28 215.055 21.28C217.855 21.28 219.855 22.0667 221.055 23.64C222.282 25.1867 222.895 27.5067 222.895 30.6V31.72H220.015V30.6C220.015 28.1733 219.669 26.4267 218.975 25.36C218.282 24.2667 216.989 23.72 215.095 23.72C213.682 23.72 212.589 24.0267 211.815 24.64C211.069 25.2533 210.562 26.0933 210.295 27.16C210.055 28.2 209.935 29.5333 209.935 31.16V44.48C209.935 47.0133 210.295 48.8933 211.015 50.12C211.762 51.3467 213.135 51.96 215.135 51.96C217.029 51.96 218.349 51.3467 219.095 50.12C219.842 48.8667 220.215 46.96 220.215 44.4V40.6H215.415V38.32H223.015V54H221.055L220.695 50.32C220.242 51.6267 219.549 52.64 218.615 53.36C217.682 54.08 216.429 54.44 214.855 54.44Z" fill="#1A3F2D"/>
</svg>
