<svg width="40" height="40" viewBox="0 0 40 40" fill="none" xmlns="http://www.w3.org/2000/svg">
<g clip-path="url(#clip0)">
<path d="M4.59292 17.1252C4.41251 17.496 4.2821 17.9073 4.21209 18.3485C4.18209 18.5693 4.16169 18.7897 4.16169 19.0101L4.3221 29.1144L0.832656 36.6342C0.712247 36.855 0.622241 37.1154 0.582238 37.3862C0.391425 38.6291 1.24388 39.7824 2.48717 39.9732C3.44964 40.1236 4.3721 39.632 4.81333 38.8199L8.6536 30.5981C8.73361 30.4073 8.80401 30.2069 8.83401 29.9865C8.84362 29.8865 8.85402 29.7765 8.85402 29.6761L8.82401 23.4324L14.7196 26.0066L15.6721 32.1131C15.8629 33.0051 16.5946 33.7172 17.5474 33.8676C18.7903 34.048 19.9436 33.1959 20.134 31.9622C20.164 31.7522 20.164 31.541 20.144 31.341L18.9807 23.9737C18.8399 23.2616 18.3691 22.65 17.707 22.3392L12.4331 19.993L15.7917 14.1474L17.4562 16.2631C17.6266 16.454 17.847 16.614 18.0979 16.7144L24.4447 18.5693C25.2868 18.7497 26.1492 18.3085 26.48 17.4964C26.8513 16.574 26.4096 15.5311 25.4976 15.1603C25.4676 15.1503 25.4376 15.1403 25.4072 15.1303L19.8924 13.5058L15.7425 8.5226C15.1205 7.86096 14.2884 7.38972 13.3259 7.23931C11.6414 6.9885 10.0473 7.79055 9.20484 9.15425L4.59292 17.1252Z" fill="#3D3D3D"/>
<path d="M22.8006 31.6106L22.3998 34.6388L11.481 37.2958L11.581 39.1707H38.2113C39.1537 39.1707 39.9158 38.4091 39.9158 37.4666L39.8858 1.57411L36.2363 0.722046L34.141 10.1567L30.6415 11.6308L27.5333 20.3338L30.4811 26.9887L29.6487 29.5457L22.8006 31.6106Z" fill="#3D3D3D"/>
<path d="M15.3813 6.79807C17.2562 6.79807 18.7799 5.27397 18.7799 3.39904C18.7799 1.52411 17.2562 0 15.3813 0C13.5059 0 11.9822 1.52411 11.9822 3.39904C11.9822 5.27397 13.5063 6.79807 15.3813 6.79807Z" fill="#3D3D3D"/>
<path d="M8.6236 7.32932C8.88402 6.86809 8.73361 6.26644 8.26278 6.00562L6.61866 5.04316C6.14703 4.78234 5.55579 4.93275 5.28497 5.40398L0.211014 14.1574C-0.049404 14.6186 0.101007 15.2103 0.57184 15.4811L2.22636 16.4336C2.68759 16.7044 3.27923 16.544 3.55005 16.0827L8.6236 7.32932Z" fill="#3D3D3D"/>
</g>
<defs>
<clipPath id="clip0">
<rect width="40" height="40" fill="white"/>
</clipPath>
</defs>
</svg>
