<svg width="44" height="40" viewBox="0 0 44 40" fill="none" xmlns="http://www.w3.org/2000/svg">
<path d="M1.42857 0C0.639571 0 0 0.639571 0 1.42857V38.5714C0 39.3604 0.639619 40 1.42857 40H42.3809C43.1699 40 43.8095 39.3604 43.8095 38.5714C43.8095 37.7824 43.1699 37.1429 42.3809 37.1429H2.85714V1.42857C2.85714 0.639571 2.21752 0 1.42857 0V0ZM30 8.09529C29.1378 8.09386 28.4652 8.89632 28.497 9.59827C28.5361 10.3463 29.2519 10.9915 30 10.9524H34.0327L21.369 22.8572L16.8155 19.0625C16.5275 18.7201 16.0714 18.5262 15.625 18.5566C15.3066 18.5795 14.9972 18.7129 14.7619 18.9286L5.23809 27.5C4.65314 27.9906 4.58014 28.9847 5.08928 29.5536C5.59847 30.1224 6.59071 30.1552 7.14285 29.628L15.7589 21.8751L20.3423 25.6995C20.8464 26.2838 21.8504 26.3343 22.4107 25.8036L36.1904 12.8572V17.1429C36.18 17.8976 36.8642 18.5864 37.619 18.5864C38.3738 18.5864 39.0583 17.8976 39.0476 17.1429V9.52386C39.0475 8.77588 38.367 8.09537 37.619 8.09529H30Z" fill="#3D3D3D"/>
</svg>
