<svg width="24" height="24" viewBox="0 0 24 24" fill="none" xmlns="http://www.w3.org/2000/svg">
<path d="M0.778044 0C0.34833 0 0 0.381504 0 0.852142V23.0079C0 23.4785 0.348356 23.86 0.778044 23.86H23.082C23.5117 23.86 23.86 23.4785 23.86 23.0079C23.86 22.5372 23.5117 22.1557 23.082 22.1557H1.55609V0.852142C1.55609 0.381504 1.20773 0 0.778044 0ZM16.3389 4.82884C15.8693 4.82799 15.503 5.30666 15.5204 5.72537C15.5416 6.1716 15.9315 6.55644 16.3389 6.53313H18.5353L11.6382 13.6343L9.15822 11.3708C9.00139 11.1665 8.75299 11.0509 8.50985 11.069C8.33642 11.0827 8.16793 11.1622 8.03978 11.2909L2.85283 16.4038C2.53424 16.6964 2.49449 17.2894 2.77178 17.6287C3.0491 17.968 3.5895 17.9876 3.89022 17.6731L8.5828 13.0485L11.079 15.3298C11.3536 15.6783 11.9004 15.7084 12.2056 15.3919L19.7104 7.66932V10.2257C19.7047 10.6759 20.0774 11.0868 20.4885 11.0868C20.8996 11.0868 21.2723 10.6759 21.2665 10.2257V5.68098C21.2665 5.23482 20.8959 4.82889 20.4885 4.82884H16.3389Z" fill="white"/>
</svg>
